# xmcd
#
# Track frame offsets:
#	150
#	11583
#	27020
#	42073
#	55764
#	69748
#	81843
#	98061
#	112705
#	125597
#	140155
#
# Disc length: 2063 seconds
#
# Revision: 2
# Processed by: cddbd v1.5.2PL0 Copyright (c) Steve Scherf et al.
# Submitted via: audiograbber 1.83.01
#
DISCID=89080d0b
DTITLE=Feuerherz - Winter Edition CD2
DYEAR=2018
DGENRE=Schlager
TTITLE0=Merry Christmas
TTITLE1=Das schönste Geschenk
TTITLE2=Wenn wir zusammen sind
TTITLE3=It's Christmas (Es ist Weihnachtszeit)
TTITLE4=Letzte Weihnacht
TTITLE5=All I want for Christmas
TTITLE6=EInmalig
TTITLE7=Halt den Moment an
TTITLE8=Fliegen kann ich nicht
TTITLE9=Versprich mir nur eins (Remix)
TTITLE10=Genau wie du (Unplugged)
EXTD=
EXTT0=
EXTT1=
EXTT2=
EXTT3=
EXTT4=
EXTT5=
EXTT6=
EXTT7=
EXTT8=
EXTT9=
EXTT10=
PLAYORDER=
